# xmcd CD database file
#
# Track frame offsets:
#	150
#	3272
#	32731
#	59228
#	80545
#	102047
#	122862
#	140436
#	161273
#	179918
#	201707
#	221729
#	225399
#
# Disc length: 3385 seconds
#
# Revision: 10
# Processed by: cddbd v1.5.1PL0 Copyright (c) Steve Scherf et al.
# Submitted via: CDex 1.51
#
DISCID=bc0d370d
DTITLE=ACO - absolute ego
DYEAR=1999
DGENRE=JPop
TTITLE0=Prologue
TTITLE1=悦びに咲く花
TTITLE2=SPLEEN
TTITLE3=愛したあなたは強いひと -The Director's Cut-
TTITLE4=Black Maybe
TTITLE5=今日までの憂鬱
TTITLE6=夏の陽
TTITLE7=雨の日の為に
TTITLE8=INTERNSITY(YOU ARE)
TTITLE9=哀愁とバラード
TTITLE10=ひとつのくもり
TTITLE11=absolute ego
TTITLE12=太陽
EXTD=YEAR: 1999
EXTT0=
EXTT1=
EXTT2=
EXTT3=
EXTT4=
EXTT5=
EXTT6=
EXTT7=
EXTT8=
EXTT9=
EXTT10=
EXTT11=
EXTT12=
PLAYORDER=
